<svg width="512" height="512" viewBox="0 0 512 512" fill="none" xmlns="http://www.w3.org/2000/svg">
<rect x="103.194" y="55.5659" width="301.643" height="400.868" fill="url(#paint0_linear)" stroke="black" stroke-width="2"/>
<path d="M152.938 92.1797H128.027V86H152.938V92.1797ZM177.93 92.1797H153.02V86H177.93V92.1797ZM202.922 92.1797H178.012V86H202.922V92.1797ZM227.914 92.1797H203.004V86H227.914V92.1797ZM252.906 92.1797H227.996V86H252.906V92.1797ZM277.898 92.1797H252.988V86H277.898V92.1797ZM302.891 92.1797H277.98V86H302.891V92.1797ZM327.883 92.1797H302.973V86H327.883V92.1797ZM352.875 92.1797H327.965V86H352.875V92.1797ZM377.867 92.1797H352.957V86H377.867V92.1797ZM152.938 120.18H128.027V114H152.938V120.18ZM177.93 120.18H153.02V114H177.93V120.18ZM202.922 120.18H178.012V114H202.922V120.18ZM227.914 120.18H203.004V114H227.914V120.18ZM252.906 120.18H227.996V114H252.906V120.18ZM277.898 120.18H252.988V114H277.898V120.18ZM302.891 120.18H277.98V114H302.891V120.18ZM327.883 120.18H302.973V114H327.883V120.18ZM352.875 120.18H327.965V114H352.875V120.18ZM377.867 120.18H352.957V114H377.867V120.18ZM152.938 148.18H128.027V142H152.938V148.18ZM177.93 148.18H153.02V142H177.93V148.18ZM202.922 148.18H178.012V142H202.922V148.18ZM227.914 148.18H203.004V142H227.914V148.18ZM252.906 148.18H227.996V142H252.906V148.18ZM277.898 148.18H252.988V142H277.898V148.18ZM302.891 148.18H277.98V142H302.891V148.18ZM327.883 148.18H302.973V142H327.883V148.18ZM352.875 148.18H327.965V142H352.875V148.18ZM377.867 148.18H352.957V142H377.867V148.18ZM152.938 176.18H128.027V170H152.938V176.18ZM177.93 176.18H153.02V170H177.93V176.18ZM202.922 176.18H178.012V170H202.922V176.18ZM227.914 176.18H203.004V170H227.914V176.18ZM252.906 176.18H227.996V170H252.906V176.18ZM277.898 176.18H252.988V170H277.898V176.18ZM302.891 176.18H277.98V170H302.891V176.18ZM327.883 176.18H302.973V170H327.883V176.18ZM352.875 176.18H327.965V170H352.875V176.18ZM377.867 176.18H352.957V170H377.867V176.18ZM152.938 204.18H128.027V198H152.938V204.18ZM177.93 204.18H153.02V198H177.93V204.18ZM202.922 204.18H178.012V198H202.922V204.18ZM227.914 204.18H203.004V198H227.914V204.18ZM252.906 204.18H227.996V198H252.906V204.18ZM277.898 204.18H252.988V198H277.898V204.18ZM302.891 204.18H277.98V198H302.891V204.18ZM327.883 204.18H302.973V198H327.883V204.18ZM352.875 204.18H327.965V198H352.875V204.18ZM377.867 204.18H352.957V198H377.867V204.18ZM152.938 232.18H128.027V226H152.938V232.18ZM177.93 232.18H153.02V226H177.93V232.18ZM202.922 232.18H178.012V226H202.922V232.18ZM227.914 232.18H203.004V226H227.914V232.18ZM252.906 232.18H227.996V226H252.906V232.18ZM277.898 232.18H252.988V226H277.898V232.18ZM302.891 232.18H277.98V226H302.891V232.18ZM327.883 232.18H302.973V226H327.883V232.18ZM352.875 232.18H327.965V226H352.875V232.18ZM377.867 232.18H352.957V226H377.867V232.18ZM152.938 260.18H128.027V254H152.938V260.18ZM177.93 260.18H153.02V254H177.93V260.18ZM202.922 260.18H178.012V254H202.922V260.18ZM227.914 260.18H203.004V254H227.914V260.18ZM252.906 260.18H227.996V254H252.906V260.18ZM277.898 260.18H252.988V254H277.898V260.18ZM302.891 260.18H277.98V254H302.891V260.18ZM327.883 260.18H302.973V254H327.883V260.18ZM352.875 260.18H327.965V254H352.875V260.18ZM377.867 260.18H352.957V254H377.867V260.18ZM152.938 288.18H128.027V282H152.938V288.18ZM177.93 288.18H153.02V282H177.93V288.18ZM202.922 288.18H178.012V282H202.922V288.18ZM227.914 288.18H203.004V282H227.914V288.18ZM252.906 288.18H227.996V282H252.906V288.18ZM277.898 288.18H252.988V282H277.898V288.18ZM302.891 288.18H277.98V282H302.891V288.18ZM327.883 288.18H302.973V282H327.883V288.18ZM352.875 288.18H327.965V282H352.875V288.18ZM152.938 316.18H128.027V310H152.938V316.18ZM177.93 316.18H153.02V310H177.93V316.18ZM202.922 316.18H178.012V310H202.922V316.18ZM227.914 316.18H203.004V310H227.914V316.18ZM252.906 316.18H227.996V310H252.906V316.18ZM277.898 316.18H252.988V310H277.898V316.18ZM302.891 316.18H277.98V310H302.891V316.18ZM327.883 316.18H302.973V310H327.883V316.18ZM152.938 344.18H128.027V338H152.938V344.18ZM177.93 344.18H153.02V338H177.93V344.18ZM202.922 344.18H178.012V338H202.922V344.18ZM227.914 344.18H203.004V338H227.914V344.18ZM252.906 344.18H227.996V338H252.906V344.18ZM277.898 344.18H252.988V338H277.898V344.18ZM302.891 344.18H277.98V338H302.891V344.18ZM152.938 372.18H128.027V366H152.938V372.18ZM177.93 372.18H153.02V366H177.93V372.18ZM202.922 372.18H178.012V366H202.922V372.18ZM227.914 372.18H203.004V366H227.914V372.18ZM252.906 372.18H227.996V366H252.906V372.18ZM277.898 372.18H252.988V366H277.898V372.18ZM152.938 400.18H128.027V394H152.938V400.18ZM177.93 400.18H153.02V394H177.93V400.18ZM202.922 400.18H178.012V394H202.922V400.18ZM227.914 400.18H203.004V394H227.914V400.18Z" fill="white"/>
<defs>
<linearGradient id="paint0_linear" x1="103" y1="64.5" x2="405" y2="456" gradientUnits="userSpaceOnUse">
<stop stop-color="#7F7FD5"/>
<stop offset="0.505208" stop-color="#86A8E7"/>
<stop offset="1" stop-color="#91EAE4"/>
</linearGradient>
</defs>
</svg>
